<?xml version="1.0" encoding="UTF-8"?>
<svg id="Layer_1" data-name="Layer 1" xmlns="http://www.w3.org/2000/svg" viewBox="0 0 817.24 276.54">
  <defs>
    <style>
      .cls-1 {
        fill: #fff;
      }
    </style>
  </defs>
  <g>
    <path class="cls-1" d="M58.42,245.93c-3.53-1.33-6.2-4.07-8.01-8.2-.84-1.93-1.46-4.29-1.85-7.07l-14-95.34c-.23-2.03-.77-4.01-1.61-5.95-.84-1.93-1.92-3.55-3.23-4.87-1.31-1.31-2.94-2.7-4.89-4.15-2.38-2.08-4.15-3.69-5.31-4.83-1.15-1.14-2.15-2.67-2.99-4.6-1.8-4.14-1.82-8.03-.04-11.68,1.77-3.64,5.56-6.73,11.35-9.26l14.48-6.32c3.45-1.5,6.75-1.75,9.89-.74,3.15,1.01,5.47,3.24,6.98,6.68,1.14,2.62,1.82,5.77,2.03,9.46.21,3.69.17,8.38-.13,14.09-.19,4.84-.21,8.83-.07,11.97.14,3.14.6,5.61,1.38,7.4,1.68,3.86,4.87,4.77,9.56,2.73,1.93-.84,4.05-2.01,6.35-3.51,3.9-2.35,7.43-4.22,10.6-5.61,7.72-3.37,15.42-4.54,23.08-3.54,7.66,1.01,14.53,3.97,20.61,8.86,6.08,4.9,10.74,11.07,13.99,18.52,4.75,10.9,6.63,21.24,5.65,31.02-.99,9.79-4.33,18.3-10.03,25.55-5.7,7.25-12.9,12.77-21.59,16.56-6.35,2.77-11.68,4.19-15.99,4.26-4.32.08-8.74-.37-13.27-1.35-2-.44-3.63-.71-4.91-.81-1.27-.1-2.4.06-3.36.48-1.24.54-2.18,1.41-2.81,2.58-.64,1.18-1.28,2.9-1.94,5.15-.97,3.05-2.02,5.52-3.17,7.41-1.14,1.89-3.1,3.44-5.85,4.65-3.72,1.62-7.35,1.77-10.89.44ZM118.05,184.22c2.29-5.84,2.15-11.73-.44-17.66-2.59-5.93-6.8-10.04-12.64-12.34-5.84-2.29-11.73-2.15-17.66.44-5.93,2.59-10.08,6.82-12.44,12.69-2.36,5.87-2.25,11.78.33,17.71,2.59,5.93,6.84,10.03,12.75,12.29,5.91,2.27,11.83,2.1,17.76-.48,5.93-2.59,10.04-6.8,12.34-12.64Z"/>
    <path class="cls-1" d="M313.76,169.78c-3.46-2.75-5.39-6.75-5.8-12-.16-2.1-.04-3.99.35-5.69.4-1.69,1.11-3.71,2.13-6.05,2.13-5.6,3.56-10.46,4.3-14.59l14.08-72.4c.45-1.99.59-4.04.43-6.15-.17-2.25-.66-4.14-1.46-5.66-.8-1.52-1.88-3.36-3.26-5.52-1.52-2.15-2.65-3.94-3.36-5.4-.72-1.45-1.15-3.15-1.3-5.11-.33-4.2.96-8,3.87-11.39,2.91-3.39,7.43-5.33,13.58-5.81l14.18-1.1c4.8-.37,8.78.83,11.94,3.6,3.16,2.78,4.94,6.79,5.35,12.04.16,2.1.05,4-.35,5.69-.4,1.69-1.11,3.71-2.13,6.05-2.13,5.6-3.57,10.46-4.3,14.59l-14.08,72.4c-.45,2-.59,4.05-.43,6.15.17,2.25.66,4.14,1.46,5.66.8,1.52,1.88,3.36,3.26,5.52,1.52,2.15,2.64,3.95,3.36,5.4.71,1.46,1.15,3.16,1.3,5.11.33,4.2-.96,8-3.87,11.39-2.91,3.39-7.44,5.33-13.58,5.81l-13.05,1.01c-4.95.38-9.16-.8-12.61-3.55Z"/>
    <path class="cls-1" d="M368.97,165.54c-3.29-2.95-4.98-7.06-5.07-12.32-.04-2.11.19-3.99.69-5.66.5-1.66,1.32-3.63,2.49-5.91,2.46-5.46,4.18-10.23,5.16-14.31l18.37-71.43c.57-1.96.83-4,.79-6.11-.04-2.26-.41-4.17-1.12-5.74-.71-1.57-1.68-3.47-2.92-5.7-1.39-2.23-2.41-4.09-3.03-5.59-.63-1.49-.96-3.22-1-5.17-.08-4.21,1.44-7.93,4.54-11.14,3.1-3.22,7.74-4.88,13.91-4.99l14.22-.25c4.81-.09,8.71,1.35,11.7,4.31,2.99,2.96,4.53,7.07,4.62,12.33.04,2.11-.19,3.99-.69,5.66-.5,1.67-1.33,3.64-2.49,5.91-2.46,5.46-4.18,10.23-5.16,14.31l-18.37,71.43c-.57,1.97-.83,4-.79,6.11.04,2.26.41,4.17,1.12,5.74.71,1.57,1.68,3.47,2.92,5.7,1.39,2.23,2.4,4.1,3.03,5.59.63,1.49.96,3.22,1,5.17.08,4.21-1.44,7.93-4.54,11.14-3.1,3.22-7.74,4.88-13.91,4.99l-13.09.23c-4.96.09-9.09-1.34-12.38-4.29Z"/>
    <path class="cls-1" d="M441,163.84c-5.68-4.84-10.08-11.15-13.18-18.94-3.11-7.78-4.4-16.18-3.9-25.2.56-9.92,3.21-18.96,7.97-27.13,4.75-8.17,11.21-14.52,19.38-19.03,8.17-4.51,17.43-6.48,27.8-5.9,8.26.46,15.57,2.5,21.92,6.09,6.35,3.6,11.21,8.39,14.56,14.38,3.35,5.99,4.83,12.59,4.42,19.8-.6,10.67-4.56,18.81-11.88,24.42-7.32,5.62-17.15,8.08-29.46,7.39-4.66-.26-7.06.96-7.21,3.66-.08,1.35.73,3.13,2.41,5.34,1.26,1.73,2.22,3.33,2.9,4.8.67,1.47.94,3.33.82,5.58-.24,4.21-1.96,7.43-5.18,9.66-3.22,2.23-7.38,3.2-12.48,2.91-6.91-.39-13.21-3-18.89-7.84ZM485.79,117.08c3.16-2.68,4.86-6.06,5.09-10.11.23-4.06-1.08-7.59-3.92-10.62-2.85-3.02-6.37-4.65-10.58-4.89-4.21-.24-7.85.99-10.94,3.68-3.09,2.69-4.75,6.06-4.98,10.12-.23,4.06,1.04,7.6,3.81,10.61,2.77,3.02,6.26,4.65,10.46,4.88,4.2.24,7.89-.99,11.06-3.67Z"/>
    <path class="cls-1" d="M534.05,154.74c-.03-9-.18-14.98-.45-17.92l-2.72-33.17c-.15-2.77-.52-5.58-1.12-8.42-.3-1.88-.52-3.75-.67-5.6-.15-1.85-.1-3.52.15-5.01.59-3.56,2.34-6.28,5.25-8.17,2.9-1.88,6.66-2.44,11.26-1.67l17.14,2.85c4.01.67,6.98,2.07,8.91,4.23,1.93,2.15,2.61,4.94,2.04,8.35-.39,2.38-1.24,4.48-2.54,6.33-1.3,1.84-3.15,4.02-5.54,6.51-2.37,2.35-4.26,4.48-5.64,6.38-1.39,1.91-2.29,4.12-2.71,6.64-.64,3.86.15,7.38,2.36,10.57,2.21,3.19,5.4,5.13,9.56,5.82,4.3.72,8.18-.16,11.65-2.64,3.46-2.47,5.61-6.24,6.45-11.28.54-3.26.37-7.72-.53-13.36-.42-2.05-.72-4.16-.89-6.33-.18-2.16-.11-4.14.18-5.92,1.23-7.42,6.45-10.37,15.65-8.84l18.26,3.03c4.75.79,8.13,2.46,10.15,5,2.01,2.55,2.74,5.53,2.17,8.94-.72,4.31-3.29,8.76-7.71,13.36l-33.45,34.71c-5.39,5.82-10.23,11.5-14.5,17.04-4.3,5.69-8.34,9.79-12.11,12.29-3.77,2.5-8.33,3.31-13.67,2.42-11.28-1.88-16.93-10.59-16.93-26.15Z"/>
    <path class="cls-1" d="M616.85,189.16c-2.39-3.78-2.89-8.21-1.49-13.29.56-2.03,1.3-3.74,2.23-5.12.93-1.38,2.27-3,4.03-4.86,3.9-4.54,6.92-8.71,9.06-12.49l8.85-15.12c1.1-1.72,1.93-3.6,2.49-5.64.6-2.18.78-4.12.55-5.82-.23-1.7-.63-3.8-1.19-6.3-.75-2.39-1.19-4.46-1.33-6.22-.14-1.75.05-3.58.57-5.46,1.16-4.21,3.66-7.34,7.51-9.4,3.84-2.06,8.74-2.28,14.69-.64l14.14,3.89c4.64,1.28,7.94,3.59,9.91,6.94,1.96,3.35,2.37,7.13,1.21,11.34-.64,2.32-1.46,4.32-2.47,5.99-1.01,1.67-2.56,3.78-4.67,6.32-3.35,4.23-6.28,8.34-8.78,12.33l-14.31,23.92c-2.62,4.43-4.68,9.33-6.15,14.69-1.4,5.08-4.27,8.85-8.62,11.32-4.35,2.47-9.35,2.93-15.01,1.37-5.08-1.4-8.82-3.99-11.2-7.77ZM671.08,79.79c-2.84-4.99-3.48-10.32-1.92-15.98,1.56-5.66,4.83-9.9,9.83-12.74,4.99-2.84,10.32-3.48,15.98-1.92,5.66,1.56,9.9,4.83,12.74,9.83,2.84,4.99,3.48,10.32,1.92,15.98-1.56,5.66-4.83,9.9-9.83,12.74-4.99,2.84-10.32,3.48-15.98,1.92-5.66-1.56-9.9-4.83-12.74-9.83Z"/>
    <path class="cls-1" d="M668.16,201.58c-2.02-4.18-1.97-8.68.16-13.5.79-1.79,1.73-3.27,2.82-4.43,1.09-1.16,2.57-2.57,4.45-4.21,4.02-3.16,7.75-6.94,11.18-11.35l10.76-13.76c1.32-1.88,2.32-3.58,2.99-5.1.91-2.06,1.41-3.94,1.5-5.63.09-1.69.03-3.97-.18-6.86-.19-2.55-.27-4.6-.25-6.15.03-1.55.43-3.22,1.22-5.01,1.76-3.99,4.71-6.76,8.85-8.31,4.14-1.54,9.02-1.08,14.67,1.42l14.45,6.38c3.03,1.34,5.19,2.95,6.5,4.84,1.3,1.89,2.46,4.29,3.48,7.21.55,1.72,1.14,3.09,1.76,4.11.62,1.01,1.48,1.76,2.58,2.25,1.1.49,2.37.68,3.82.57,1.44-.1,3.33-.38,5.67-.83,3.86-.93,7.61-1.41,11.25-1.45,3.63-.04,7.59.88,11.85,2.76,6.2,2.73,10.63,6.66,13.3,11.79,2.67,5.13,2.52,11.06-.46,17.81-1.03,2.34-2.23,4.4-3.59,6.19-1.37,1.78-3.27,3.95-5.7,6.49-3.08,3.25-5.41,5.92-6.99,8.02l-14.96,18.81c-1.14,1.47-2.19,3.19-3.14,5.15-.95,1.97-1.82,3.85-2.61,5.63l-1.18,2.68c-2.07,4.68-5.31,7.94-9.74,9.77-4.43,1.83-9.12,1.65-14.07-.54l-12.39-5.47c-5.37-2.37-9.09-5.4-11.15-9.11-2.06-3.71-2.16-7.69-.27-11.96,1.52-3.44,3.54-5.79,6.08-7.06,2.53-1.26,6.13-2.35,10.81-3.25,3.8-.79,6.79-1.61,8.98-2.45,2.18-.85,4.06-2.32,5.65-4.41l8.18-10.7c1.14-1.47,2.05-2.96,2.71-4.48,1.58-3.58,1.79-6.94.63-10.08-1.16-3.14-3.67-5.57-7.52-7.27-3.99-1.76-7.96-1.99-11.91-.69-3.95,1.3-7.57,4.02-10.87,8.15l-16.19,20.48c-3.43,4.41-6.17,8.96-8.24,13.63-2.07,4.68-5.51,7.93-10.34,9.74-4.83,1.81-9.72,1.63-14.68-.56-4.54-2-7.83-5.1-9.84-9.28Z"/>
  </g>
  <path class="cls-1" d="M272.2,148.82c12.18-2.04,21.21-6.58,27.12-13.7,5.91-7.08,7.97-15.88,6.21-26.42-1.2-7.14-4.11-13.24-8.7-18.36-4.59-5.09-10.38-8.69-17.36-10.82-4.32-1.29-8.91-1.94-13.68-1.88-1.47,0-2.95.06-4.46.19-1.51.13-3.04.33-4.6.59-8.87,1.49-16.52,4.65-22.93,9.53-.99.74-1.93,1.54-2.87,2.37-.89.8-1.76,1.63-2.6,2.5-.89.92-2.15,1.39-3.4,1.11-1.04-.23-15.79-5.27-26.68-3.41-9.78,1.67-18.05,5.55-24.69,11.71-6.68,6.13-11.36,13.72-14.06,22.72-2.7,9-3.22,18.31-1.6,27.97,1.56,9.33,4.85,17.29,9.86,23.86,4.97,6.57,10.87,11.27,17.67,14.07,6.8,2.83,13.54,3.69,20.22,2.57,4.45-.75,7.93-2.1,10.43-4.04,2.5-1.93,4.93-4.5,7.3-7.62,1.53-1.94,2.68-3.31,3.54-4.16.84-.81,2.49-1.83,3.8-2.05,1.33-.22,2.39-.03,3.17.6,2.2,1.73,4.49,3.25,6.93,4.51,6.61,3.47,13.3,4.64,20.14,3.49,5.04-.85,8.9-2.7,11.55-5.6,2.62-2.86,3.61-6.39,2.91-10.55-.37-2.23-1.04-3.97-2.02-5.25-.99-1.28-2.26-2.65-3.88-4.06-2.15-1.76-3.32-3.31-3.54-4.66-.45-2.68,1.62-4.41,6.23-5.18ZM213.89,159.31c-5.5.92-10.47-.23-14.98-3.44-4.51-3.21-7.23-7.57-8.14-13.04-.95-5.66.16-10.69,3.29-15.09,3.16-4.43,7.56-7.12,13.19-8.07,2.55-.43,5.01-.44,7.33-.02,2.78.51,5.42,1.62,7.86,3.33,4.49,3.12,7.22,7.51,8.16,13.17.12.7.2,1.4.26,2.08.37,4.8-.86,9.14-3.68,13-2.08,2.84-4.62,4.98-7.68,6.4-1.72.76-3.58,1.34-5.61,1.68ZM264.2,131.18c-3.37.57-6.47.14-9.34-1.33h0c-.66-.29-1.29-.69-1.94-1.12-3.35-2.33-5.37-5.53-6.04-9.52-.67-3.99.19-7.67,2.6-10.97,2.44-3.3,5.71-5.3,9.87-6,1.87-.31,3.68-.31,5.38-.03,2.11.35,4.14,1.19,6.03,2.45,3.42,2.32,5.5,5.51,6.17,9.5.67,3.99-.26,7.68-2.73,10.99-2.51,3.31-5.84,5.32-10,6.02Z"/>
</svg>