<svg width="167" height="206" viewBox="0 0 167 206" fill="none" xmlns="http://www.w3.org/2000/svg">
<rect width="167" height="206" rx="36" fill="white"/>
<path d="M17.072 37L19.502 30.565H20.186L22.634 37H21.986L21.239 34.975H18.44L17.684 37H17.072ZM18.62 34.48H21.059L20.177 32.077C20.042 31.717 19.853 31.141 19.853 31.141H19.835C19.835 31.141 19.664 31.69 19.52 32.077L18.62 34.48ZM23.1991 37V30.565H23.7571V37H23.1991ZM24.746 37V30.565H25.304V37H24.746ZM27.6194 37V30.565H28.1774V34.588L30.4904 32.347H31.2014L29.4194 34.03L31.4174 37H30.7694L29.0324 34.39L28.1774 35.209V37H27.6194ZM31.9176 37V32.347H32.4756V37H31.9176ZM31.9176 31.357V30.565H32.4756V31.357H31.9176ZM33.4201 37V32.347H33.9781V33.058H33.9961C34.3111 32.59 34.8151 32.248 35.5531 32.248C36.4171 32.248 37.0381 32.761 37.0381 33.697V37H36.4801V33.751C36.4801 33.049 36.0751 32.725 35.4181 32.725C34.6261 32.725 33.9781 33.283 33.9781 34.048V37H33.4201ZM39.7017 37.126C38.4507 37.126 37.6947 36.118 37.6947 34.687C37.6947 33.139 38.5767 32.248 39.6837 32.248C40.3947 32.248 40.9167 32.581 41.2137 33.121H41.2317V30.565H41.7897V37H41.2317V36.307H41.2137C40.8717 36.838 40.4037 37.126 39.7017 37.126ZM39.7197 36.658C40.7367 36.658 41.2767 35.857 41.2767 34.696C41.2767 33.553 40.7277 32.716 39.7197 32.716C38.8017 32.716 38.2707 33.535 38.2707 34.696C38.2707 35.785 38.7387 36.658 39.7197 36.658ZM44.3568 37.126C43.1148 37.126 42.4848 36.451 42.4308 35.551H42.9978C43.0788 36.334 43.6188 36.649 44.3658 36.649C45.1398 36.649 45.5448 36.289 45.5448 35.749C45.5448 35.236 45.2568 35.065 44.3028 34.849C43.3578 34.633 42.6018 34.408 42.6018 33.508C42.6018 32.734 43.2678 32.248 44.2218 32.248C45.3288 32.248 45.8418 32.806 45.9498 33.625H45.3918C45.3288 33.022 44.9148 32.707 44.2218 32.707C43.5018 32.707 43.1598 33.049 43.1598 33.481C43.1598 34.012 43.6008 34.138 44.4918 34.345C45.4278 34.543 46.1028 34.777 46.1028 35.74C46.1028 36.568 45.4368 37.126 44.3568 37.126Z" fill="black"/>
<path d="M140.54 176C140.54 177.45 139.709 178.901 138.048 180.287C136.39 181.671 133.961 182.939 130.915 184.014C124.829 186.162 116.388 187.5 107.04 187.5C97.6925 187.5 89.2513 186.162 83.1648 184.014C80.1193 182.939 77.6903 181.671 76.0323 180.287C74.3715 178.901 73.54 177.45 73.54 176C73.54 174.55 74.3715 173.099 76.0323 171.713C77.6903 170.329 80.1193 169.061 83.1648 167.986C89.2513 165.838 97.6925 164.5 107.04 164.5C116.388 164.5 124.829 165.838 130.915 167.986C133.961 169.061 136.39 170.329 138.048 171.713C139.709 173.099 140.54 174.55 140.54 176Z" stroke="black"/>
<path d="M135.54 27C135.54 28.1691 134.854 29.3564 133.445 30.5049C132.04 31.6503 129.977 32.704 127.383 33.5984C122.2 35.3856 115.008 36.5 107.04 36.5C99.0721 36.5 91.8798 35.3856 86.6969 33.5984C84.1031 32.704 82.0398 31.6503 80.6349 30.5049C79.2262 29.3564 78.54 28.1691 78.54 27C78.54 25.8309 79.2262 24.6436 80.6349 23.4951C82.0398 22.3497 84.1031 21.296 86.6969 20.4016C91.8798 18.6144 99.0721 17.5 107.04 17.5C115.008 17.5 122.2 18.6144 127.383 20.4016C129.977 21.296 132.04 22.3497 133.445 23.4951C134.854 24.6436 135.54 25.8309 135.54 27Z" stroke="black"/>
<path d="M68.5413 100C68.0416 98.5 67.0404 92.5 67.54 91L69.04 81.5C70.3734 81 73.54 80.3 75.54 81.5C78.04 83 84.54 91 95.54 94C106.54 97 146.54 92 146.04 83.5C145.64 76.7 146.532 79.6667 147.028 82C148.047 88.0457 148.649 92.8914 148.541 95.5C148.041 107.5 124.541 117.5 105.041 119C85.5407 120.5 69.1734 101.897 68.5413 100Z" fill="#00FF26"/>
<path d="M135.541 27.5C138.575 40.9731 144.297 65.7964 147.028 82M69.04 81.5L67.54 91C67.0404 92.5 68.0416 98.5 68.5413 100C69.1734 101.897 85.5407 120.5 105.041 119C124.541 117.5 148.041 107.5 148.541 95.5C148.649 92.8914 148.047 88.0457 147.028 82M69.04 81.5C70.3734 81 73.54 80.3 75.54 81.5C78.04 83 84.54 91 95.54 94C106.54 97 146.54 92 146.04 83.5C145.64 76.7 146.532 79.6667 147.028 82M69.04 81.5L78.54 27.5" stroke="black"/>
<path d="M105.04 173V118.5" stroke="black"/>
<path d="M110.04 173.5V119" stroke="black"/>
</svg>
