<svg width="133" height="171" viewBox="0 0 133 171" fill="none" xmlns="http://www.w3.org/2000/svg">
<path d="M0.518899 18L2.9489 11.565H3.6329L6.0809 18H5.4329L4.6859 15.975H1.8869L1.1309 18H0.518899ZM2.0669 15.48H4.5059L3.6239 13.077C3.4889 12.717 3.2999 12.141 3.2999 12.141H3.2819C3.2819 12.141 3.1109 12.69 2.9669 13.077L2.0669 15.48ZM6.646 18V11.565H7.204V18H6.646ZM8.19288 18V11.565H8.75088V18H8.19288ZM11.0663 18V11.565H11.6243V15.588L13.9373 13.347H14.6483L12.8663 15.03L14.8643 18H14.2163L12.4793 15.39L11.6243 16.209V18H11.0663ZM15.3645 18V13.347H15.9225V18H15.3645ZM15.3645 12.357V11.565H15.9225V12.357H15.3645ZM16.867 18V13.347H17.425V14.058H17.443C17.758 13.59 18.262 13.248 19 13.248C19.864 13.248 20.485 13.761 20.485 14.697V18H19.927V14.751C19.927 14.049 19.522 13.725 18.865 13.725C18.073 13.725 17.425 14.283 17.425 15.048V18H16.867ZM23.1486 18.126C21.8976 18.126 21.1416 17.118 21.1416 15.687C21.1416 14.139 22.0236 13.248 23.1306 13.248C23.8416 13.248 24.3636 13.581 24.6606 14.121H24.6786V11.565H25.2366V18H24.6786V17.307H24.6606C24.3186 17.838 23.8506 18.126 23.1486 18.126ZM23.1666 17.658C24.1836 17.658 24.7236 16.857 24.7236 15.696C24.7236 14.553 24.1746 13.716 23.1666 13.716C22.2486 13.716 21.7176 14.535 21.7176 15.696C21.7176 16.785 22.1856 17.658 23.1666 17.658ZM27.8037 18.126C26.5617 18.126 25.9317 17.451 25.8777 16.551H26.4447C26.5257 17.334 27.0657 17.649 27.8127 17.649C28.5867 17.649 28.9917 17.289 28.9917 16.749C28.9917 16.236 28.7037 16.065 27.7497 15.849C26.8047 15.633 26.0487 15.408 26.0487 14.508C26.0487 13.734 26.7147 13.248 27.6687 13.248C28.7757 13.248 29.2887 13.806 29.3967 14.625H28.8387C28.7757 14.022 28.3617 13.707 27.6687 13.707C26.9487 13.707 26.6067 14.049 26.6067 14.481C26.6067 15.012 27.0477 15.138 27.9387 15.345C28.8747 15.543 29.5497 15.777 29.5497 16.74C29.5497 17.568 28.8837 18.126 27.8037 18.126Z" fill="black"/>
<path d="M123.583 159C123.583 160.45 122.751 161.901 121.09 163.287C119.432 164.671 117.003 165.939 113.958 167.014C107.871 169.162 99.4302 170.5 90.0826 170.5C80.7351 170.5 72.2939 169.162 66.2074 167.014C63.1619 165.939 60.7329 164.671 59.0749 163.287C57.4141 161.901 56.5826 160.45 56.5826 159C56.5826 157.55 57.4141 156.099 59.0749 154.713C60.7329 153.329 63.1619 152.061 66.2074 150.986C72.2939 148.838 80.7351 147.5 90.0826 147.5C99.4302 147.5 107.871 148.838 113.958 150.986C117.003 152.061 119.432 153.329 121.09 154.713C122.751 156.099 123.583 157.55 123.583 159Z" stroke="black"/>
<path d="M118.583 10C118.583 11.1691 117.897 12.3564 116.488 13.5049C115.083 14.6503 113.02 15.704 110.426 16.5984C105.243 18.3856 98.0505 19.5 90.0826 19.5C82.1147 19.5 74.9224 18.3856 69.7395 16.5984C67.1457 15.704 65.0824 14.6503 63.6775 13.5049C62.2688 12.3564 61.5826 11.1691 61.5826 10C61.5826 8.83089 62.2688 7.6436 63.6775 6.49508C65.0824 5.34972 67.1457 4.29604 69.7395 3.40162C74.9224 1.61443 82.1147 0.5 90.0826 0.5C98.0505 0.5 105.243 1.61443 110.426 3.40162C113.02 4.29604 115.083 5.34972 116.488 6.49508C117.897 7.6436 118.583 8.83089 118.583 10Z" stroke="black"/>
<path d="M51.5839 83C51.0842 81.5 50.083 75.5 50.5826 74L52.0826 64.5C53.416 64 56.5826 63.3 58.5826 64.5C61.0826 66 67.5826 74 78.5826 77C89.5826 80 129.583 75 129.083 66.5C128.683 59.7 129.575 62.6667 130.07 65C131.089 71.0457 131.692 75.8914 131.583 78.5C131.083 90.5 107.583 100.5 88.0833 102C68.5833 103.5 52.216 84.8975 51.5839 83Z" fill="#00FF26"/>
<path d="M118.584 10.5C121.618 23.9731 127.34 48.7964 130.07 65M52.0826 64.5L50.5826 74C50.083 75.5 51.0842 81.5 51.5839 83C52.216 84.8975 68.5833 103.5 88.0833 102C107.583 100.5 131.083 90.5 131.583 78.5C131.692 75.8914 131.089 71.0457 130.07 65M52.0826 64.5C53.416 64 56.5826 63.3 58.5826 64.5C61.0826 66 67.5826 74 78.5826 77C89.5826 80 129.583 75 129.083 66.5C128.683 59.7 129.575 62.6667 130.07 65M52.0826 64.5L61.5826 10.5" stroke="black"/>
<path d="M88.0826 156V101.5" stroke="black"/>
<path d="M93.0826 156.5V102" stroke="black"/>
</svg>
