<svg width="51" height="51" viewBox="0 0 51 51" fill="none" xmlns="http://www.w3.org/2000/svg">
<path d="M5.90064 21.4398H7.58924L6.73545 19.3907L5.90064 21.4398ZM17.683 31.4197L19.087 29.9208L17.7589 28.4219H14.6663V29.3516H17.3604V30.3951H14.6663V31.4197H17.683ZM20.6808 29.9397L22.5591 32.0268V27.9096L20.6808 29.9397ZM26.145 29.048C26.145 28.6306 25.8921 28.4219 25.3861 28.4219H23.7924V29.7311H25.3671C25.8857 29.7311 26.145 29.5034 26.145 29.048ZM31.6283 28.9722C31.6283 28.6054 31.3627 28.422 30.8314 28.422H29.2756V29.5794H30.8125C31.3564 29.5794 31.6283 29.377 31.6283 28.9722ZM26.3537 20.1307C26.3537 19.7639 26.0881 19.5805 25.5569 19.5805H24.0011V20.7189H25.5379C26.0818 20.7189 26.3537 20.5229 26.3537 20.1307ZM35.0625 21.4399H36.7511L35.9162 19.3908L35.0625 21.4399ZM16.9051 18.499V23.6408H15.6529V19.6185L13.8694 23.6408H12.7879L11.0044 19.6185V23.6408H8.49995L8.02562 22.5024H5.46425L4.98992 23.6408H3.66179L5.86269 18.499H7.68413L9.77116 23.3752V18.499H11.7823L13.395 21.9901L14.856 18.499H16.9051ZM27.4542 29.0482C27.4542 29.3011 27.4195 29.5225 27.35 29.7122C27.2806 29.9019 27.192 30.06 27.0845 30.1866C26.9769 30.3131 26.8346 30.4174 26.6576 30.4995C26.4805 30.5816 26.3161 30.6448 26.1642 30.6893C26.0125 30.7335 25.8132 30.7619 25.5666 30.7745C25.3199 30.7867 25.1207 30.7927 24.9689 30.7927C24.8172 30.7927 24.6116 30.7891 24.3523 30.7818C24.093 30.7745 23.9064 30.7709 23.7926 30.7709V32.4974H21.4017L19.8839 30.7898L18.3091 32.4974H13.452V27.3557H18.385L19.9029 29.0443L21.4587 27.3557H25.3861C26.7648 27.3557 27.4542 27.9186 27.4542 29.0443V29.0482ZM21.933 22.5783V23.6408H17.8158V18.499H21.933V19.5805H19.0491V20.5102H21.8571V21.5537H19.0491V22.5783H21.933ZM47.3571 33.1842V37.529C47.3571 38.2247 47.1136 38.8224 46.6266 39.322C46.1397 39.8216 45.5483 40.0714 44.8526 40.0714H6.14729C5.4516 40.0714 4.86027 39.8216 4.37329 39.322C3.88631 38.8224 3.64282 38.2247 3.64282 37.529V24.6652H5.74885L6.22318 23.5078H7.26671L7.74104 24.6652H11.8772V23.7924L12.2379 24.6652H14.3818L14.7613 23.7734V24.6652H25.0258V22.7869L25.2156 22.7686C25.3421 22.7686 25.4054 22.8572 25.4054 23.0342V24.6659H30.6989V24.2295C30.9898 24.3813 31.3377 24.4951 31.7424 24.5708C32.1472 24.6466 32.4792 24.6878 32.7385 24.6943C32.9978 24.7016 33.3962 24.698 33.9338 24.6834C34.4714 24.6713 34.7971 24.6652 34.9109 24.6652L35.3853 23.5078H36.4478L36.9221 24.6652H41.229V23.5647L41.8741 24.6652H45.3272V17.4933H41.9121V18.3281L41.4377 17.4933H37.9277V18.3281L37.4913 17.4933H32.767C31.8942 17.4933 31.2048 17.6325 30.6989 17.9107V17.4933H27.4355V17.9107C27.1319 17.6325 26.6702 17.4933 26.0504 17.4933H14.1353L13.3194 19.3337L12.5036 17.4933H8.74686V18.3281L8.32947 17.4933H5.12273L3.64282 20.8895V13.471C3.64282 12.7753 3.88631 12.1777 4.37329 11.678C4.86027 11.1784 5.4516 10.9286 6.14729 10.9286H44.8526C45.5483 10.9286 46.1397 11.1784 46.6266 11.678C47.1136 12.1777 47.3571 12.7753 47.3571 13.471V26.3349H45.0803C44.4352 26.3349 43.9229 26.474 43.5435 26.7522V26.3349H40.1852C39.4895 26.3349 38.9962 26.474 38.7053 26.7522V26.3349H32.7098V26.7522C32.3177 26.474 31.7674 26.3349 31.0591 26.3349H27.0937V26.7522C26.8028 26.474 26.2273 26.3349 25.3671 26.3349H20.9274L19.9029 27.4353L18.9542 26.3349H12.3326V33.5067H18.8403L19.8839 32.3873L20.8705 33.5067H24.8738V31.8181H25.2723C26.0186 31.8181 26.5878 31.7359 26.9799 31.5715V33.5067H30.2812V31.6284H30.4331C30.5344 31.6284 30.5977 31.641 30.6229 31.6662C30.6482 31.6915 30.6608 31.7548 30.6608 31.856V33.5067H40.6976C41.4186 33.5067 41.9751 33.3549 42.3673 33.0514V33.5067H45.5548C46.3137 33.5067 46.9144 33.3991 47.3571 33.1842ZM32.9754 28.7444C32.9754 29.0354 32.8995 29.3073 32.7477 29.5603C32.5959 29.8133 32.3809 29.9967 32.1026 30.1105C32.4189 30.2244 32.6339 30.3888 32.7477 30.6038C32.8616 30.8187 32.9186 31.1097 32.9186 31.4766V32.5012H31.6853V31.6473C31.6853 31.2299 31.6094 30.9548 31.4576 30.822C31.3058 30.6892 31.0149 30.6227 30.5848 30.6227H29.2757V32.5011H28.0425V27.3594H30.9642C31.5714 27.3594 32.0584 27.4542 32.4252 27.6439C32.792 27.8335 32.9754 28.2005 32.9754 28.7444ZM27.7198 19.8839C27.7198 20.1875 27.6408 20.4658 27.4827 20.7188C27.3246 20.9718 27.1127 21.1552 26.8471 21.269C27.1759 21.3829 27.3941 21.5442 27.5016 21.7528C27.6092 21.9614 27.663 22.2555 27.663 22.6351V23.6406H26.4298C26.4298 23.5267 26.4334 23.3591 26.4407 23.1378C26.448 22.9166 26.448 22.7585 26.4407 22.6635C26.4334 22.5686 26.4145 22.4515 26.3839 22.3123C26.3523 22.1732 26.2985 22.072 26.2225 22.0089C26.1467 21.9457 26.0361 21.892 25.8906 21.8475C25.7451 21.8033 25.5586 21.7812 25.3309 21.7812H24.0028V23.6406H22.7885V18.4988L25.6914 18.517C26.3112 18.517 26.8045 18.6087 27.1713 18.7921C27.5381 18.9754 27.7198 19.34 27.7198 19.8839ZM37.7566 31.4386V32.5012H33.6584V27.3594H37.7566V28.4219H34.8917V29.3516H37.6997V30.3951H34.8917V31.4197L37.7566 31.4386ZM29.6741 18.4989V23.6406H28.4218V18.4989H29.6741ZM42.8225 30.8694C42.8225 31.9572 42.1774 32.5012 40.8872 32.5012H38.4966V31.4007H40.8872C41.3173 31.4007 41.5323 31.2426 41.5323 30.9263C41.5323 30.724 41.4249 30.5912 41.2099 30.5279C40.995 30.4648 40.7325 30.4332 40.4225 30.4332C40.1126 30.4332 39.7996 30.4111 39.4834 30.3669C39.1671 30.3227 38.9015 30.1804 38.6865 29.94C38.4716 29.6996 38.3641 29.3517 38.3641 28.8965C38.3641 28.4032 38.5285 28.0237 38.8574 27.7581C39.1863 27.4925 39.6037 27.3597 40.1096 27.3597H42.5761V28.4411H40.3183C39.863 28.4411 39.6353 28.5992 39.6353 28.9155C39.6353 29.1178 39.7459 29.2474 39.9672 29.3044C40.1884 29.3612 40.454 29.3865 40.764 29.3802C41.074 29.3729 41.3839 29.3887 41.6937 29.4275C42.0036 29.4654 42.2693 29.6014 42.4906 29.8354C42.7119 30.0695 42.8225 30.4142 42.8225 30.8694ZM47.3571 29.9208V31.8371C47.0535 32.2798 46.497 32.5012 45.6875 32.5012H43.3158V31.4007H45.6875C46.1049 31.4007 46.3136 31.2426 46.3136 30.9263C46.3136 30.7619 46.2345 30.6417 46.0764 30.5657C45.9183 30.4897 45.7223 30.455 45.4882 30.4615C45.2541 30.4688 45.0012 30.4562 44.7293 30.4236C44.4574 30.3921 44.2044 30.3414 43.9704 30.2717C43.7363 30.202 43.5402 30.0502 43.3822 29.8164C43.2241 29.5823 43.1451 29.2755 43.1451 28.8961C43.1451 28.4029 43.3126 28.0234 43.6478 27.7578C43.983 27.4921 44.4036 27.3593 44.9096 27.3593H47.3571V28.4408H45.1183C44.6629 28.4408 44.4352 28.5989 44.4352 28.9151C44.4352 29.1681 44.6186 29.3072 44.9855 29.3325C45.3523 29.3578 45.7855 29.3894 46.2851 29.4272C46.7847 29.4651 47.1421 29.6298 47.3571 29.9208ZM44.2265 18.5179V23.6406H42.481L40.1662 19.7891V23.6406H37.6618L37.1685 22.5022H34.6261L34.1517 23.6406H32.7288C31.0971 23.6406 30.2812 22.7995 30.2812 21.1172C30.2812 19.3717 31.1224 18.4989 32.8047 18.4989H33.9999V19.6183C33.9113 19.6183 33.7342 19.6123 33.4687 19.6001C33.2031 19.588 33.0228 19.5843 32.928 19.5892C32.833 19.5965 32.6875 19.6091 32.4916 19.6271C32.2956 19.6465 32.1596 19.6877 32.0837 19.7506C32.0079 19.8137 31.9162 19.8991 31.8086 20.0067C31.701 20.1142 31.6283 20.2597 31.5904 20.443C31.5525 20.6264 31.5336 20.8383 31.5336 21.0786C31.5336 21.5593 31.619 21.9261 31.7897 22.1791C31.9604 22.4321 32.2735 22.5586 32.7289 22.5586H33.2791L35.0246 18.5172H36.865L38.9331 23.3744V18.5172H40.8115L42.9744 22.0842V18.5172L44.2265 18.5179Z" fill="#1F1F1F"/>
</svg>
