<?xml version="1.0" encoding="UTF-8"?>
<svg id="Layer_1" xmlns="http://www.w3.org/2000/svg" version="1.1" viewBox="0 0 800 800">
  <!-- Generator: Adobe Illustrator 29.1.0, SVG Export Plug-In . SVG Version: 2.1.0 Build 142)  -->
  <defs>
    <style>
      .st0 {
        fill: #1e5dab;
      }
    </style>
  </defs>
  <path class="st0" d="M38.3,617.2c-14-14.6-13.2-35.1-9.7-53.6,5.2-27.4,12.1-55.4,18-82.7,16.2-74.8,33.4-149.5,48.7-224.5,3.6-37.6-38.6-59.2-25.8-98.6,11.6-35.4,58.7-31.9,88.6-33.1s26.7-3.3,40.3,4.1c42,22.9,2.2,90.8-9.7,122.3-11.5,30.4-22.3,63,25.5,56.3,35.8-5,61.8-12.6,98.4-1.5,114.3,34.3,122.1,198.6,43.4,272.4-42.3,39.6-118.3,57-172,32.7-13.1-5.9-24.7-15.5-37.1-21-22.4-10-31.6,15.9-45.3,28.7-17.5,16.3-46.7,16-63.4-1.4ZM223.8,383.4c-62.1,4.9-88.3,83.6-41.9,125.2,39.5,35.4,105.5,18,118.9-34.1,13-50.6-25.2-95.3-77-91.2Z"/>
  <path class="st0" d="M553.9,449.5c22,25.6,65.6,17.3,78.7-13.5,15-35.3-9.7-66.8-7.6-100.9,1.7-27.2,23.2-34.1,47.2-32.5,24.9,4.8,68.9-2.8,88.9,14.2,27.9,23.6,2.1,60.7-14.2,82.1-38,49.8-80.6,98.4-115.2,150.6-23.5,35.4-41.4,78.8-92.4,72.8-58.3-6.9-55.7-72.8-61.9-116.5-2.5-17.4-6.4-34.7-9.6-52s-8.1-47.8-13.1-71.5c-5.6-27-24-66.5,7.7-84.6,15.5-8.9,29.4-5.7,46-4.8,14.1.8,29,.9,43,2.5,24.9,2.7,38.9,17.4,33.8,43.1-4.3,21.6-25.2,38.4-35.6,57.3s-9.1,38.4,4.2,53.9Z"/>
</svg>