<?xml version="1.0" encoding="UTF-8"?>
<svg id="Layer_1" data-name="Layer 1" xmlns="http://www.w3.org/2000/svg" viewBox="0 0 800 800" width="32" height="32">
  <defs>
    <style>
      .cls-1 {
        fill: #1e5dab;
      }
    </style>
  </defs>
  <path class="cls-1" d="M38.34,617.2c-13.96-14.61-13.21-35.07-9.72-53.61,5.16-27.37,12.06-55.36,17.99-82.69,16.23-74.82,33.44-149.47,48.73-224.48,3.65-37.62-38.63-59.21-25.75-98.58,11.58-35.4,58.65-31.89,88.57-33.11,14.58-.6,26.7-3.3,40.3,4.12,41.99,22.91,2.23,90.75-9.66,122.32-11.47,30.44-22.29,62.96,25.47,56.27,35.82-5.02,61.79-12.55,98.42-1.55,114.27,34.32,122.11,198.57,43.37,272.38-42.29,39.64-118.33,56.97-171.95,32.66-13.1-5.94-24.75-15.5-37.12-21.04-22.42-10.04-31.59,15.88-45.29,28.69-17.46,16.34-46.73,16-63.36-1.4ZM223.76,383.41c-62.13,4.94-88.3,83.61-41.93,125.23,39.48,35.43,105.49,18.04,118.91-34.06,13.04-50.61-25.19-95.28-76.98-91.17Z"/>
  <path class="cls-1" d="M553.92,449.53c22.03,25.61,65.58,17.33,78.7-13.5,15.04-35.33-9.74-66.83-7.55-100.91,1.75-27.18,23.15-34.06,47.17-32.53,24.89,4.78,68.92-2.75,88.93,14.18,27.93,23.64,2.1,60.68-14.23,82.07-38.04,49.83-80.62,98.42-115.23,150.63-23.5,35.45-41.42,78.77-92.4,72.77-58.29-6.85-55.69-72.83-61.88-116.5-2.47-17.45-6.42-34.67-9.59-51.99-4.35-23.79-8.13-47.83-13.06-71.49-5.62-27.01-23.98-66.51,7.72-84.63,15.5-8.85,29.35-5.73,46.02-4.81,14.1.78,29,.94,42.99,2.45,24.86,2.69,38.95,17.38,33.81,43.09-4.31,21.6-25.24,38.41-35.6,57.26-9.68,17.6-9.14,38.37,4.2,53.89Z"/>
</svg>