<svg width="51" height="51" viewBox="0 0 51 51" fill="none" xmlns="http://www.w3.org/2000/svg">
<path d="M25.5001 13.9135C25.3088 14.0633 25.1239 14.2115 24.9438 14.3725C21.8281 17.0898 19.8693 21.0662 19.8693 25.5C19.8693 29.9339 21.8265 33.9103 24.9247 36.6133L24.9422 36.6276C25.1207 36.787 25.3104 36.9416 25.4985 37.0898C25.6897 36.9432 25.8746 36.787 26.0547 36.6276C29.1705 33.9103 31.1276 29.9339 31.1276 25.5C31.1276 21.0662 29.1705 17.0898 26.0722 14.3868L26.0547 14.3725C25.8762 14.2131 25.6881 14.0617 25.4985 13.9135H25.5001ZM34.6179 10.7499C34.6099 10.7499 34.6004 10.7499 34.5892 10.7499C31.5563 10.7499 28.7401 11.6695 26.4005 13.2457L26.4531 13.2122C26.5726 13.3063 26.681 13.4051 26.7798 13.5087L26.7814 13.5103C30.1538 16.4364 32.2735 20.7268 32.2735 25.5128C32.2735 30.2877 30.165 34.5685 26.8276 37.4771L26.8085 37.493C26.6938 37.5902 26.5695 37.6874 26.4483 37.7831C28.7449 39.329 31.5738 40.2518 34.6163 40.2518C42.7636 40.2518 49.3681 33.6473 49.3681 25.5C49.3681 17.3528 42.7651 10.7515 34.6179 10.7499ZM24.1932 37.4946C24.3079 37.5918 24.4322 37.689 24.5534 37.7847C22.2584 39.329 19.4311 40.2502 16.3886 40.2502C8.24133 40.2502 1.63843 33.6457 1.63843 25.5C1.63843 17.3544 8.24293 10.7499 16.3886 10.7499C19.4279 10.7499 22.2536 11.6695 24.6012 13.2457L24.5486 13.2122C24.4291 13.3063 24.3207 13.4051 24.2219 13.5087L24.2203 13.5103C20.8479 16.4364 18.7282 20.7268 18.7282 25.5128C18.7282 30.2877 20.8367 34.5685 24.1741 37.4771L24.1932 37.4946Z" fill="#1F1F1F"/>
</svg>
