<svg width="47" height="47" viewBox="0 0 47 47" fill="none" xmlns="http://www.w3.org/2000/svg">
<path d="M18.5298 18.7792L22.771 29.0115C25.5326 27.6749 28.5567 26.9687 31.6247 26.9438C34.611 26.9424 37.5549 27.6511 40.2133 29.0115V18.7792C39.1434 18.1051 37.9565 17.6376 36.7143 17.4007L34.5405 11.9401C31.5697 11.8554 28.6173 12.435 25.899 13.6366C19.7491 16.3405 18.5298 18.7792 18.5298 18.7792Z" fill="#1F1F1F" stroke="#1F1F1F" stroke-width="2" stroke-linecap="round" stroke-linejoin="round"/>
<path d="M32.2125 26.9576L34.8744 33.0567C34.9961 33.3354 35.0616 33.6353 35.0674 33.9394C35.0731 34.2434 35.0189 34.5456 34.9078 34.8287C34.7967 35.1118 34.631 35.3703 34.42 35.5893C34.2091 35.8083 33.9571 35.9837 33.6784 36.1053L21.4997 41.4207C20.9368 41.6664 20.2994 41.6783 19.7277 41.454C19.156 41.2297 18.6967 40.7875 18.451 40.2247L6.9807 13.9434C6.85905 13.6646 6.79349 13.3647 6.78776 13.0607C6.78204 12.7566 6.83625 12.4544 6.94732 12.1713C7.05838 11.8882 7.22412 11.6298 7.43507 11.4107C7.64601 11.1917 7.89804 11.0164 8.17675 10.8947L20.3554 5.57932C20.9184 5.33372 21.5558 5.32181 22.1276 5.5462C22.6993 5.7706 23.1585 6.21292 23.4041 6.77586L26.322 13.4615" fill="#1F1F1F"/>
<path d="M32.2125 26.9576L34.8744 33.0567C34.9961 33.3354 35.0616 33.6353 35.0674 33.9394C35.0731 34.2434 35.0189 34.5456 34.9078 34.8287C34.7967 35.1118 34.631 35.3703 34.42 35.5893C34.2091 35.8083 33.9571 35.9837 33.6784 36.1053L21.4997 41.4207C20.9368 41.6664 20.2994 41.6783 19.7277 41.454C19.156 41.2297 18.6967 40.7875 18.451 40.2247L6.9807 13.9434C6.85905 13.6646 6.79349 13.3647 6.78776 13.0607C6.78204 12.7566 6.83625 12.4544 6.94732 12.1713C7.05838 11.8882 7.22412 11.6298 7.43507 11.4107C7.64601 11.1917 7.89804 11.0164 8.17675 10.8947L20.3554 5.57932C20.9184 5.33372 21.5558 5.32181 22.1276 5.5462C22.6993 5.7706 23.1585 6.21292 23.4041 6.77586L26.322 13.4615" stroke="#1F1F1F" stroke-width="2" stroke-linecap="round" stroke-linejoin="round"/>
</svg>
