<svg width="167" height="206" viewBox="0 0 167 206" fill="none" xmlns="http://www.w3.org/2000/svg">
<rect width="167" height="206" rx="36" fill="white"/>
<path d="M20.312 32.586C21.86 32.586 22.688 31.335 22.688 29.778C22.688 28.221 21.86 26.97 20.312 26.97C18.773 26.97 17.954 28.221 17.954 29.778C17.954 31.335 18.773 32.586 20.312 32.586ZM20.312 33.126C18.494 33.126 17.324 31.695 17.324 29.778C17.324 27.861 18.494 26.43 20.312 26.43C22.139 26.43 23.318 27.861 23.318 29.778C23.318 31.695 22.139 33.126 20.312 33.126ZM24.1125 33V28.347H24.6705V29.211H24.6885C24.9765 28.671 25.4625 28.311 26.1105 28.311C26.1825 28.311 26.2275 28.32 26.2635 28.329V28.878C25.9305 28.824 25.5615 28.896 25.2735 29.103C24.9135 29.373 24.6705 29.805 24.6705 30.354V33H24.1125ZM27.9126 33.108C27.0486 33.108 26.3916 32.676 26.3916 31.812C26.3916 30.705 27.2556 30.48 28.3086 30.354C29.2266 30.246 29.5596 30.192 29.5596 29.724V29.634C29.5596 29.004 29.1636 28.698 28.4436 28.698C27.6156 28.698 27.1836 29.04 27.1386 29.733H26.5896C26.6526 28.833 27.2466 28.248 28.4436 28.248C29.4606 28.248 30.0906 28.671 30.0906 29.688V32.217C30.0906 32.496 30.1986 32.613 30.3966 32.622C30.4596 32.622 30.5226 32.604 30.6036 32.586H30.6306V32.991C30.5496 33.027 30.4326 33.063 30.2526 33.063C29.8476 33.063 29.5956 32.856 29.5686 32.406V32.307H29.5416C29.2806 32.676 28.8036 33.108 27.9126 33.108ZM28.0116 32.658C29.0286 32.658 29.5686 31.956 29.5686 31.317V30.48C29.2716 30.642 28.8126 30.723 28.3626 30.786C27.5796 30.894 26.9766 31.011 26.9766 31.812C26.9766 32.46 27.4626 32.658 28.0116 32.658ZM31.1438 33V28.347H31.7018V29.058H31.7198C32.0348 28.59 32.5388 28.248 33.2768 28.248C34.1408 28.248 34.7618 28.761 34.7618 29.697V33H34.2038V29.751C34.2038 29.049 33.7988 28.725 33.1418 28.725C32.3498 28.725 31.7018 29.283 31.7018 30.048V33H31.1438ZM37.4794 34.629C36.3364 34.629 35.6974 34.107 35.6164 33.414H36.1564C36.2554 33.954 36.7864 34.17 37.4614 34.17C38.4514 34.17 38.9194 33.657 38.9194 32.838V32.1H38.8924C38.5504 32.622 38.1184 32.91 37.4164 32.91C36.1924 32.91 35.4184 31.956 35.4184 30.588C35.4184 29.076 36.3364 28.248 37.4164 28.248C38.1364 28.248 38.5864 28.563 38.8924 29.067H38.9194V28.347H39.4684V32.82C39.4684 33.342 39.3154 33.765 39.0364 34.071C38.6854 34.44 38.1724 34.629 37.4794 34.629ZM37.4434 32.442C38.4784 32.442 38.9554 31.695 38.9554 30.579C38.9554 29.481 38.4694 28.716 37.4524 28.716C36.5344 28.716 35.9944 29.463 35.9944 30.597C35.9944 31.659 36.4624 32.442 37.4434 32.442ZM42.3335 33.117C40.9385 33.117 40.1645 32.073 40.1645 30.678C40.1645 29.283 41.0015 28.239 42.2885 28.239C43.7825 28.239 44.2955 29.472 44.2865 30.777H40.7405C40.7675 31.821 41.2715 32.64 42.3335 32.64C43.1075 32.64 43.5125 32.226 43.6925 31.596H44.2325C44.0345 32.514 43.3775 33.117 42.3335 33.117ZM40.7495 30.336H43.7015C43.6745 29.418 43.2425 28.698 42.2885 28.698C41.3435 28.698 40.8485 29.409 40.7495 30.336Z" fill="black"/>
<path d="M123.434 172.75C123.434 174.2 122.602 175.651 120.941 177.037C119.283 178.421 116.854 179.689 113.809 180.764C107.722 182.912 99.2812 184.25 89.9336 184.25C80.586 184.25 72.1449 182.912 66.0584 180.764C63.0129 179.689 60.5838 178.421 58.9258 177.037C57.265 175.651 56.4336 174.2 56.4336 172.75C56.4336 171.3 57.265 169.849 58.9258 168.463C60.5838 167.079 63.0129 165.811 66.0584 164.736C72.1449 162.588 80.586 161.25 89.9336 161.25C99.2812 161.25 107.722 162.588 113.809 164.736C116.854 165.811 119.283 167.079 120.941 168.463C122.602 169.849 123.434 171.3 123.434 172.75Z" stroke="black"/>
<path d="M118.434 23.75C118.434 24.9191 117.747 26.1064 116.339 27.2549C114.934 28.4003 112.871 29.454 110.277 30.3484C105.094 32.1356 97.9015 33.25 89.9336 33.25C81.9657 33.25 74.7733 32.1356 69.5905 30.3484C66.9967 29.454 64.9334 28.4003 63.5285 27.2549C62.1197 26.1064 61.4336 24.9191 61.4336 23.75C61.4336 22.5809 62.1197 21.3936 63.5285 20.2451C64.9334 19.0997 66.9967 18.046 69.5905 17.1516C74.7733 15.3644 81.9657 14.25 89.9336 14.25C97.9015 14.25 105.094 15.3644 110.277 17.1516C112.871 18.046 114.934 19.0997 116.339 20.2451C117.747 21.3936 118.434 22.5809 118.434 23.75Z" stroke="black"/>
<path d="M51.4349 96.75C50.9352 95.25 49.934 89.25 50.4336 87.75L51.9336 78.25C53.2669 77.75 56.4336 77.05 58.4336 78.25C60.9336 79.75 67.4336 87.75 78.4336 90.75C89.4336 93.75 129.434 88.75 128.934 80.25C128.534 73.45 129.425 76.4167 129.921 78.75C130.94 84.7957 131.543 89.6414 131.434 92.25C130.934 104.25 107.434 114.25 87.9342 115.75C68.4342 117.25 52.0669 98.6475 51.4349 96.75Z" fill="#FFCE47"/>
<path d="M118.434 24.25C121.469 37.7231 127.191 62.5464 129.921 78.75M51.9336 78.25L50.4336 87.75C49.934 89.25 50.9352 95.25 51.4349 96.75C52.0669 98.6475 68.4342 117.25 87.9342 115.75C107.434 114.25 130.934 104.25 131.434 92.25C131.543 89.6414 130.94 84.7957 129.921 78.75M51.9336 78.25C53.2669 77.75 56.4336 77.05 58.4336 78.25C60.9336 79.75 67.4336 87.75 78.4336 90.75C89.4336 93.75 129.434 88.75 128.934 80.25C128.534 73.45 129.425 76.4167 129.921 78.75M51.9336 78.25L61.4336 24.25" stroke="black"/>
<path d="M87.9336 169.75V115.25" stroke="black"/>
<path d="M92.9336 170.25V115.75" stroke="black"/>
</svg>
