<svg width="132" height="171" viewBox="0 0 132 171" fill="none" xmlns="http://www.w3.org/2000/svg">
<path d="M3.60991 17.586C5.15791 17.586 5.98591 16.335 5.98591 14.778C5.98591 13.221 5.15791 11.97 3.60991 11.97C2.07091 11.97 1.25191 13.221 1.25191 14.778C1.25191 16.335 2.07091 17.586 3.60991 17.586ZM3.60991 18.126C1.79191 18.126 0.621913 16.695 0.621913 14.778C0.621913 12.861 1.79191 11.43 3.60991 11.43C5.43691 11.43 6.61591 12.861 6.61591 14.778C6.61591 16.695 5.43691 18.126 3.60991 18.126ZM7.41044 18V13.347H7.96844V14.211H7.98644C8.27444 13.671 8.76044 13.311 9.40844 13.311C9.48044 13.311 9.52544 13.32 9.56144 13.329V13.878C9.22844 13.824 8.85944 13.896 8.57144 14.103C8.21144 14.373 7.96844 14.805 7.96844 15.354V18H7.41044ZM11.2105 18.108C10.3465 18.108 9.68948 17.676 9.68948 16.812C9.68948 15.705 10.5535 15.48 11.6065 15.354C12.5245 15.246 12.8575 15.192 12.8575 14.724V14.634C12.8575 14.004 12.4615 13.698 11.7415 13.698C10.9135 13.698 10.4815 14.04 10.4365 14.733H9.88748C9.95048 13.833 10.5445 13.248 11.7415 13.248C12.7585 13.248 13.3885 13.671 13.3885 14.688V17.217C13.3885 17.496 13.4965 17.613 13.6945 17.622C13.7575 17.622 13.8205 17.604 13.9015 17.586H13.9285V17.991C13.8475 18.027 13.7305 18.063 13.5505 18.063C13.1455 18.063 12.8935 17.856 12.8665 17.406V17.307H12.8395C12.5785 17.676 12.1015 18.108 11.2105 18.108ZM11.3095 17.658C12.3265 17.658 12.8665 16.956 12.8665 16.317V15.48C12.5695 15.642 12.1105 15.723 11.6605 15.786C10.8775 15.894 10.2745 16.011 10.2745 16.812C10.2745 17.46 10.7605 17.658 11.3095 17.658ZM14.4417 18V13.347H14.9997V14.058H15.0177C15.3327 13.59 15.8367 13.248 16.5747 13.248C17.4387 13.248 18.0597 13.761 18.0597 14.697V18H17.5017V14.751C17.5017 14.049 17.0967 13.725 16.4397 13.725C15.6477 13.725 14.9997 14.283 14.9997 15.048V18H14.4417ZM20.7773 19.629C19.6343 19.629 18.9953 19.107 18.9143 18.414H19.4543C19.5533 18.954 20.0843 19.17 20.7593 19.17C21.7493 19.17 22.2173 18.657 22.2173 17.838V17.1H22.1903C21.8483 17.622 21.4163 17.91 20.7143 17.91C19.4903 17.91 18.7163 16.956 18.7163 15.588C18.7163 14.076 19.6343 13.248 20.7143 13.248C21.4343 13.248 21.8843 13.563 22.1903 14.067H22.2173V13.347H22.7663V17.82C22.7663 18.342 22.6133 18.765 22.3343 19.071C21.9833 19.44 21.4703 19.629 20.7773 19.629ZM20.7413 17.442C21.7763 17.442 22.2533 16.695 22.2533 15.579C22.2533 14.481 21.7673 13.716 20.7503 13.716C19.8323 13.716 19.2923 14.463 19.2923 15.597C19.2923 16.659 19.7603 17.442 20.7413 17.442ZM25.6314 18.117C24.2364 18.117 23.4624 17.073 23.4624 15.678C23.4624 14.283 24.2994 13.239 25.5864 13.239C27.0804 13.239 27.5934 14.472 27.5844 15.777H24.0384C24.0654 16.821 24.5694 17.64 25.6314 17.64C26.4054 17.64 26.8104 17.226 26.9904 16.596H27.5304C27.3324 17.514 26.6754 18.117 25.6314 18.117ZM24.0474 15.336H26.9994C26.9724 14.418 26.5404 13.698 25.5864 13.698C24.6414 13.698 24.1464 14.409 24.0474 15.336Z" fill="black"/>
<path d="M123.434 159C123.434 160.45 122.602 161.901 120.941 163.287C119.283 164.671 116.854 165.939 113.809 167.014C107.722 169.162 99.2812 170.5 89.9337 170.5C80.5861 170.5 72.1449 169.162 66.0584 167.014C63.0129 165.939 60.5839 164.671 58.9259 163.287C57.2651 161.901 56.4337 160.45 56.4337 159C56.4337 157.55 57.2651 156.099 58.9259 154.713C60.5839 153.329 63.0129 152.061 66.0584 150.986C72.1449 148.838 80.5861 147.5 89.9337 147.5C99.2812 147.5 107.722 148.838 113.809 150.986C116.854 152.061 119.283 153.329 120.941 154.713C122.602 156.099 123.434 157.55 123.434 159Z" stroke="black"/>
<path d="M118.434 10C118.434 11.1691 117.748 12.3564 116.339 13.5049C114.934 14.6503 112.871 15.704 110.277 16.5984C105.094 18.3856 97.9016 19.5 89.9337 19.5C81.9658 19.5 74.7734 18.3856 69.5906 16.5984C66.9967 15.704 64.9335 14.6503 63.5286 13.5049C62.1198 12.3564 61.4337 11.1691 61.4337 10C61.4337 8.83089 62.1198 7.6436 63.5286 6.49508C64.9335 5.34972 66.9967 4.29604 69.5906 3.40162C74.7734 1.61443 81.9658 0.5 89.9337 0.5C97.9016 0.5 105.094 1.61443 110.277 3.40162C112.871 4.29604 114.934 5.34972 116.339 6.49508C117.748 7.6436 118.434 8.83089 118.434 10Z" stroke="black"/>
<path d="M51.4349 83C50.9352 81.5 49.934 75.5 50.4337 74L51.9337 64.5C53.267 64 56.4337 63.3 58.4337 64.5C60.9337 66 67.4337 74 78.4337 77C89.4337 80 129.434 75 128.934 66.5C128.534 59.7 129.426 62.6667 129.921 65C130.94 71.0457 131.543 75.8914 131.434 78.5C130.934 90.5 107.434 100.5 87.9343 102C68.4343 103.5 52.067 84.8975 51.4349 83Z" fill="#FFCE47"/>
<path d="M118.435 10.5C121.469 23.9731 127.191 48.7964 129.921 65M51.9337 64.5L50.4337 74C49.934 75.5 50.9352 81.5 51.4349 83C52.067 84.8975 68.4343 103.5 87.9343 102C107.434 100.5 130.934 90.5 131.434 78.5C131.543 75.8914 130.94 71.0457 129.921 65M51.9337 64.5C53.267 64 56.4337 63.3 58.4337 64.5C60.9337 66 67.4337 74 78.4337 77C89.4337 80 129.434 75 128.934 66.5C128.534 59.7 129.426 62.6667 129.921 65M51.9337 64.5L61.4337 10.5" stroke="black"/>
<path d="M87.9337 156V101.5" stroke="black"/>
<path d="M92.9337 156.5V102" stroke="black"/>
</svg>
