<svg width="35" height="35" viewBox="0 0 35 35" fill="none" xmlns="http://www.w3.org/2000/svg">
<path fill-rule="evenodd" clip-rule="evenodd" d="M31.4571 10.3248C29.3314 19.4546 22.8474 21 14.1376 21L11.5117 35H16.3195C17.1953 35 17.5622 34.4036 17.7237 33.5636C18.9225 25.9843 18.7541 27.2246 18.8629 26.0381C18.9664 25.3766 19.5386 24.5 20.2109 24.5C26.5967 24.5 30.8322 22.6541 32.1258 16.0269C32.5857 13.6696 32.4347 11.8508 31.4571 10.3248ZM11.61 20.7548L9.64588 31.5H3.56205C2.98632 31.5 2.54574 30.7964 2.63701 30.2294L7.17968 1.31421C7.29904 0.558209 7.95378 0 8.7226 0H19.6317C26.0911 0 30.4407 2.4521 29.435 8.84485C27.6744 20.2303 17.915 19.25 13.4741 19.25C12.7053 19.25 11.7311 19.9988 11.61 20.7548Z" fill="#1F1F1F"/>
</svg>
