<svg width="132" height="171" viewBox="0 0 132 171" fill="none" xmlns="http://www.w3.org/2000/svg">
<path d="M0.576 18V11.565H3.447C4.608 11.565 5.274 12.231 5.274 13.302C5.274 14.094 4.932 14.616 4.194 14.85V14.877C4.86 15.102 5.076 15.588 5.121 16.587C5.166 17.622 5.283 17.883 5.4 17.964V18H4.752C4.608 17.901 4.572 17.658 4.518 16.56C4.464 15.444 4.077 15.129 3.141 15.129H1.179V18H0.576ZM1.179 14.616H3.24C4.176 14.616 4.653 14.157 4.653 13.356C4.653 12.555 4.293 12.096 3.321 12.096H1.179V14.616ZM7.98384 18.117C6.58884 18.117 5.81484 17.073 5.81484 15.678C5.81484 14.283 6.65184 13.239 7.93884 13.239C9.43284 13.239 9.94584 14.472 9.93684 15.777H6.39084C6.41784 16.821 6.92184 17.64 7.98384 17.64C8.75784 17.64 9.16284 17.226 9.34284 16.596H9.88284C9.68484 17.514 9.02784 18.117 7.98384 18.117ZM6.39984 15.336H9.35184C9.32484 14.418 8.89284 13.698 7.93884 13.698C6.99384 13.698 6.49884 14.409 6.39984 15.336ZM12.3922 18.126C11.1412 18.126 10.3852 17.118 10.3852 15.687C10.3852 14.139 11.2672 13.248 12.3742 13.248C13.0852 13.248 13.6072 13.581 13.9042 14.121H13.9222V11.565H14.4802V18H13.9222V17.307H13.9042C13.5622 17.838 13.0942 18.126 12.3922 18.126ZM12.4102 17.658C13.4272 17.658 13.9672 16.857 13.9672 15.696C13.9672 14.553 13.4182 13.716 12.4102 13.716C11.4922 13.716 10.9612 14.535 10.9612 15.696C10.9612 16.785 11.4292 17.658 12.4102 17.658Z" fill="black"/>
<path d="M123.136 159C123.136 160.45 122.304 161.901 120.644 163.287C118.986 164.671 116.556 165.939 113.511 167.014C107.424 169.162 98.9833 170.5 89.6357 170.5C80.2882 170.5 71.847 169.162 65.7605 167.014C62.715 165.939 60.286 164.671 58.628 163.287C56.9672 161.901 56.1357 160.45 56.1357 159C56.1357 157.55 56.9672 156.099 58.628 154.713C60.286 153.329 62.715 152.061 65.7605 150.986C71.847 148.838 80.2882 147.5 89.6357 147.5C98.9833 147.5 107.424 148.838 113.511 150.986C116.556 152.061 118.986 153.329 120.644 154.713C122.304 156.099 123.136 157.55 123.136 159Z" stroke="black"/>
<path d="M118.136 10C118.136 11.1691 117.45 12.3564 116.041 13.5049C114.636 14.6503 112.573 15.704 109.979 16.5984C104.796 18.3856 97.6036 19.5 89.6357 19.5C81.6678 19.5 74.4755 18.3856 69.2926 16.5984C66.6988 15.704 64.6355 14.6503 63.2306 13.5049C61.8219 12.3564 61.1357 11.1691 61.1357 10C61.1357 8.83089 61.8219 7.6436 63.2306 6.49508C64.6355 5.34972 66.6988 4.29604 69.2926 3.40162C74.4755 1.61443 81.6678 0.5 89.6357 0.5C97.6036 0.5 104.796 1.61443 109.979 3.40162C112.573 4.29604 114.636 5.34972 116.041 6.49508C117.45 7.6436 118.136 8.83089 118.136 10Z" stroke="black"/>
<path d="M51.137 83C50.6373 81.5 49.6361 75.5 50.1357 74L51.6357 64.5C52.9691 64 56.1357 63.3 58.1357 64.5C60.6357 66 67.1357 74 78.1357 77C89.1357 80 129.136 75 128.636 66.5C128.236 59.7 129.128 62.6667 129.624 65C130.642 71.0457 131.245 75.8914 131.136 78.5C130.636 90.5 107.136 100.5 87.6364 102C68.1364 103.5 51.7691 84.8975 51.137 83Z" fill="#FF8C8C"/>
<path d="M118.137 10.5C121.171 23.9731 126.893 48.7964 129.624 65M51.6357 64.5L50.1357 74C49.6361 75.5 50.6373 81.5 51.137 83C51.7691 84.8975 68.1364 103.5 87.6364 102C107.136 100.5 130.636 90.5 131.136 78.5C131.245 75.8914 130.642 71.0457 129.624 65M51.6357 64.5C52.9691 64 56.1357 63.3 58.1357 64.5C60.6357 66 67.1357 74 78.1357 77C89.1357 80 129.136 75 128.636 66.5C128.236 59.7 129.128 62.6667 129.624 65M51.6357 64.5L61.1357 10.5" stroke="black"/>
<path d="M87.6357 156V101.5" stroke="black"/>
<path d="M92.6357 156.5V102" stroke="black"/>
</svg>
