<svg width="167" height="206" viewBox="0 0 167 206" fill="none" xmlns="http://www.w3.org/2000/svg">
<rect width="167" height="206" rx="36" fill="white"/>
<path d="M17.576 35V28.565H20.447C21.608 28.565 22.274 29.231 22.274 30.302C22.274 31.094 21.932 31.616 21.194 31.85V31.877C21.86 32.102 22.076 32.588 22.121 33.587C22.166 34.622 22.283 34.883 22.4 34.964V35H21.752C21.608 34.901 21.572 34.658 21.518 33.56C21.464 32.444 21.077 32.129 20.141 32.129H18.179V35H17.576ZM18.179 31.616H20.24C21.176 31.616 21.653 31.157 21.653 30.356C21.653 29.555 21.293 29.096 20.321 29.096H18.179V31.616ZM24.9838 35.117C23.5888 35.117 22.8148 34.073 22.8148 32.678C22.8148 31.283 23.6518 30.239 24.9388 30.239C26.4328 30.239 26.9458 31.472 26.9368 32.777H23.3908C23.4178 33.821 23.9218 34.64 24.9838 34.64C25.7578 34.64 26.1628 34.226 26.3428 33.596H26.8828C26.6848 34.514 26.0278 35.117 24.9838 35.117ZM23.3998 32.336H26.3518C26.3248 31.418 25.8928 30.698 24.9388 30.698C23.9938 30.698 23.4988 31.409 23.3998 32.336ZM29.3922 35.126C28.1412 35.126 27.3852 34.118 27.3852 32.687C27.3852 31.139 28.2672 30.248 29.3742 30.248C30.0852 30.248 30.6072 30.581 30.9042 31.121H30.9222V28.565H31.4802V35H30.9222V34.307H30.9042C30.5622 34.838 30.0942 35.126 29.3922 35.126ZM29.4102 34.658C30.4272 34.658 30.9672 33.857 30.9672 32.696C30.9672 31.553 30.4182 30.716 29.4102 30.716C28.4922 30.716 27.9612 31.535 27.9612 32.696C27.9612 33.785 28.4292 34.658 29.4102 34.658Z" fill="black"/>
<path d="M140.136 176C140.136 177.45 139.304 178.901 137.644 180.287C135.986 181.671 133.556 182.939 130.511 184.014C124.424 186.162 115.983 187.5 106.636 187.5C97.2882 187.5 88.847 186.162 82.7605 184.014C79.715 182.939 77.286 181.671 75.628 180.287C73.9672 178.901 73.1357 177.45 73.1357 176C73.1357 174.55 73.9672 173.099 75.628 171.713C77.286 170.329 79.715 169.061 82.7605 167.986C88.847 165.838 97.2882 164.5 106.636 164.5C115.983 164.5 124.424 165.838 130.511 167.986C133.556 169.061 135.986 170.329 137.644 171.713C139.304 173.099 140.136 174.55 140.136 176Z" stroke="black"/>
<path d="M135.136 27C135.136 28.1691 134.45 29.3564 133.041 30.5049C131.636 31.6503 129.573 32.704 126.979 33.5984C121.796 35.3856 114.604 36.5 106.636 36.5C98.6678 36.5 91.4755 35.3856 86.2926 33.5984C83.6988 32.704 81.6355 31.6503 80.2306 30.5049C78.8219 29.3564 78.1357 28.1691 78.1357 27C78.1357 25.8309 78.8219 24.6436 80.2306 23.4951C81.6355 22.3497 83.6988 21.296 86.2926 20.4016C91.4755 18.6144 98.6678 17.5 106.636 17.5C114.604 17.5 121.796 18.6144 126.979 20.4016C129.573 21.296 131.636 22.3497 133.041 23.4951C134.45 24.6436 135.136 25.8309 135.136 27Z" stroke="black"/>
<path d="M68.137 100C67.6373 98.5 66.6361 92.5 67.1357 91L68.6357 81.5C69.9691 81 73.1357 80.3 75.1357 81.5C77.6357 83 84.1357 91 95.1357 94C106.136 97 146.136 92 145.636 83.5C145.236 76.7 146.128 79.6667 146.624 82C147.642 88.0457 148.245 92.8914 148.136 95.5C147.636 107.5 124.136 117.5 104.636 119C85.1364 120.5 68.7691 101.897 68.137 100Z" fill="#FF8C8C"/>
<path d="M135.137 27.5C138.171 40.9731 143.893 65.7964 146.624 82M68.6357 81.5L67.1357 91C66.6361 92.5 67.6373 98.5 68.137 100C68.7691 101.897 85.1364 120.5 104.636 119C124.136 117.5 147.636 107.5 148.136 95.5C148.245 92.8914 147.642 88.0457 146.624 82M68.6357 81.5C69.9691 81 73.1357 80.3 75.1357 81.5C77.6357 83 84.1357 91 95.1357 94C106.136 97 146.136 92 145.636 83.5C145.236 76.7 146.128 79.6667 146.624 82M68.6357 81.5L78.1357 27.5" stroke="black"/>
<path d="M104.636 173V118.5" stroke="black"/>
<path d="M109.636 173.5V119" stroke="black"/>
</svg>
