<svg width="206" height="426" viewBox="0 0 206 426" fill="none" xmlns="http://www.w3.org/2000/svg">
<path d="M183.798 395.791C183.798 399.295 181.789 402.842 177.686 406.266C173.591 409.683 167.575 412.828 160.01 415.498C144.893 420.834 123.911 424.162 100.663 424.162C77.4159 424.162 56.4339 420.834 41.3169 415.498C33.7516 412.828 27.7361 409.683 23.6408 406.266C19.5372 402.842 17.5288 399.295 17.5288 395.791C17.5288 392.286 19.5372 388.74 23.6408 385.315C27.7361 381.898 33.7516 378.753 41.3169 376.083C56.4339 370.748 77.4159 367.42 100.663 367.42C123.911 367.42 144.893 370.748 160.01 376.083C167.575 378.753 173.591 381.898 177.686 385.315C181.789 388.74 183.798 392.286 183.798 395.791Z" stroke="black" stroke-width="3"/>
<path d="M171.352 24.8925C171.352 27.6946 169.708 30.5847 166.231 33.4192C162.766 36.2442 157.66 38.855 151.219 41.0761C138.351 45.5134 120.477 48.285 100.663 48.285C80.8498 48.285 62.9756 45.5134 50.1075 41.0761C43.6663 38.855 38.561 36.2442 35.0958 33.4192C31.6191 30.5847 29.9751 27.6946 29.9751 24.8925C29.9751 22.0904 31.6191 19.2003 35.0958 16.3658C38.561 13.5408 43.6663 10.93 50.1075 8.7089C62.9756 4.27162 80.8498 1.5 100.663 1.5C120.477 1.5 138.351 4.27162 151.219 8.7089C157.66 10.93 162.766 13.5408 166.231 16.3658C169.708 19.2003 171.352 22.0904 171.352 24.8925Z" stroke="black" stroke-width="3"/>
<path d="M171.609 26.1372C179.163 59.6751 193.405 121.466 200.203 161.801M6.07177 160.557L2.3379 184.205C1.09418 187.938 3.58646 202.874 4.83028 206.608C6.40369 211.331 47.146 257.637 95.6863 253.904C144.227 250.17 202.724 225.277 203.969 195.406C204.239 188.913 202.739 176.851 200.203 161.801M6.07177 160.557C9.39077 159.312 17.2734 157.57 22.2519 160.557C28.475 164.291 44.6551 184.205 72.0369 191.672C99.4186 199.14 198.989 186.694 197.744 165.535C196.748 148.608 198.968 155.993 200.203 161.801M6.07177 160.557L29.7196 26.1372" stroke="black" stroke-width="3"/>
<path d="M95.6848 388.323V252.659" stroke="black" stroke-width="3"/>
<path d="M108.131 389.568V253.904" stroke="black" stroke-width="3"/>
</svg>
