<svg width="51" height="51" viewBox="0 0 51 51" fill="none" xmlns="http://www.w3.org/2000/svg">
<path d="M35.1455 19.5203C34.1576 19.1603 33.1135 18.9797 32.0621 18.9869C28.6621 18.9869 26.2609 20.6997 26.2439 23.1583C26.2226 24.9645 27.9502 25.9824 29.2571 26.5859C30.598 27.2064 31.0463 27.5974 31.0421 28.152C31.0336 28.9957 29.9711 29.3782 28.983 29.3782C27.6251 29.3782 26.8835 29.189 25.7423 28.7152L25.3195 28.5175L24.8371 31.348C25.6637 31.6923 27.1533 31.9877 28.6918 32.0132C32.3065 32.0132 34.6695 30.311 34.6971 27.6952C34.7268 26.2523 33.7918 25.1622 31.8241 24.2612C30.6277 23.6768 29.8861 23.2858 29.8861 22.6929C29.8861 22.168 30.5215 21.607 31.8496 21.607C32.7335 21.5856 33.6119 21.7515 34.4272 22.0937L34.746 22.236L35.2283 19.5012L35.1455 19.5203ZM43.9685 19.2164H41.3122C40.4856 19.2164 39.863 19.4438 39.5017 20.264L34.3932 31.8368H38.0078L38.7304 29.9392L43.1419 29.9434C43.246 30.3875 43.5647 31.8368 43.5647 31.8368H46.7522L43.9685 19.2164ZM21.3542 19.1102H24.7988L22.6441 31.7369H19.2037L21.3542 19.1059V19.1102ZM12.6098 26.0695L12.9669 27.8227L16.3328 19.2164H19.9815L14.5606 31.8198H10.9205L7.94547 21.148C7.89729 20.9721 7.78413 20.8209 7.62885 20.7252C6.55658 20.1712 5.42043 19.7509 4.24585 19.4735L4.2926 19.2079H9.83672C10.589 19.2376 11.1946 19.4735 11.3965 20.2768L12.6077 26.0759L12.6098 26.0695ZM39.7185 27.3573L41.0912 23.8255C41.0742 23.8638 41.3739 23.0967 41.5481 22.6228L41.784 23.7129L42.5809 27.3552H39.7164L39.7185 27.3573Z" fill="#1F1F1F"/>
</svg>
