<svg width="132" height="171" viewBox="0 0 132 171" fill="none" xmlns="http://www.w3.org/2000/svg">
<path d="M1.96696 18L0.256956 11.565H0.877956L1.99396 15.903C2.11996 16.38 2.29096 17.172 2.29096 17.172H2.30896C2.30896 17.172 2.48896 16.398 2.61496 15.939L3.79396 11.565H4.44196L5.62096 15.93C5.73796 16.389 5.91796 17.172 5.91796 17.172H5.93596C5.93596 17.172 6.11596 16.38 6.23296 15.903L7.35796 11.565H7.96096L6.21496 18H5.60296L4.37896 13.311C4.26196 12.906 4.12696 12.267 4.12696 12.267H4.10896C4.10896 12.267 3.97396 12.897 3.86596 13.311L2.60596 18H1.96696ZM8.5629 18V11.565H9.1209V14.058H9.1389C9.4539 13.59 9.9579 13.248 10.6959 13.248C11.5599 13.248 12.1809 13.761 12.1809 14.697V18H11.6229V14.751C11.6229 14.049 11.2179 13.725 10.5609 13.725C9.7689 13.725 9.1209 14.283 9.1209 15.048V18H8.5629ZM13.0978 18V13.347H13.6558V18H13.0978ZM13.0978 12.357V11.565H13.6558V12.357H13.0978ZM15.8784 18.036C15.3474 18.036 14.9874 17.793 14.9874 17.199V13.806H14.2854V13.347H14.9874V11.916H15.5454V13.347H16.4094V13.806H15.5454V17.109C15.5454 17.442 15.6984 17.55 15.9954 17.55C16.1214 17.55 16.2834 17.514 16.3644 17.478H16.3914V17.955C16.2384 18.009 16.0764 18.036 15.8784 18.036ZM18.9785 18.117C17.5835 18.117 16.8095 17.073 16.8095 15.678C16.8095 14.283 17.6465 13.239 18.9335 13.239C20.4275 13.239 20.9405 14.472 20.9315 15.777H17.3855C17.4125 16.821 17.9165 17.64 18.9785 17.64C19.7525 17.64 20.1575 17.226 20.3375 16.596H20.8775C20.6795 17.514 20.0225 18.117 18.9785 18.117ZM17.3945 15.336H20.3465C20.3195 14.418 19.8875 13.698 18.9335 13.698C17.9885 13.698 17.4935 14.409 17.3945 15.336Z" fill="black"/>
<path d="M123.285 159C123.285 160.45 122.453 161.901 120.792 163.287C119.134 164.671 116.705 165.939 113.66 167.014C107.573 169.162 99.1323 170.5 89.7847 170.5C80.4371 170.5 71.996 169.162 65.9095 167.014C62.864 165.939 60.4349 164.671 58.7769 163.287C57.1161 161.901 56.2847 160.45 56.2847 159C56.2847 157.55 57.1161 156.099 58.7769 154.713C60.4349 153.329 62.864 152.061 65.9095 150.986C71.996 148.838 80.4371 147.5 89.7847 147.5C99.1323 147.5 107.573 148.838 113.66 150.986C116.705 152.061 119.134 153.329 120.792 154.713C122.453 156.099 123.285 157.55 123.285 159Z" stroke="black"/>
<path d="M118.285 10C118.285 11.1691 117.599 12.3564 116.19 13.5049C114.785 14.6503 112.722 15.704 110.128 16.5984C104.945 18.3856 97.7526 19.5 89.7847 19.5C81.8168 19.5 74.6244 18.3856 69.4416 16.5984C66.8478 15.704 64.7845 14.6503 63.3796 13.5049C61.9708 12.3564 61.2847 11.1691 61.2847 10C61.2847 8.83089 61.9708 7.6436 63.3796 6.49508C64.7845 5.34972 66.8478 4.29604 69.4416 3.40162C74.6244 1.61443 81.8168 0.5 89.7847 0.5C97.7526 0.5 104.945 1.61443 110.128 3.40162C112.722 4.29604 114.785 5.34972 116.19 6.49508C117.599 7.6436 118.285 8.83089 118.285 10Z" stroke="black"/>
<path d="M51.286 83C50.7863 81.5 49.7851 75.5 50.2847 74L51.7847 64.5C53.118 64 56.2847 63.3 58.2847 64.5C60.7847 66 67.2847 74 78.2847 77C89.2847 80 129.285 75 128.785 66.5C128.385 59.7 129.277 62.6667 129.773 65C130.791 71.0457 131.394 75.8914 131.285 78.5C130.785 90.5 107.285 100.5 87.7853 102C68.2853 103.5 51.918 84.8975 51.286 83Z" fill="#F9FF9E"/>
<path d="M118.286 10.5C121.32 23.9731 127.042 48.7964 129.773 65M51.7847 64.5L50.2847 74C49.7851 75.5 50.7863 81.5 51.286 83C51.918 84.8975 68.2853 103.5 87.7853 102C107.285 100.5 130.785 90.5 131.285 78.5C131.394 75.8914 130.791 71.0457 129.773 65M51.7847 64.5C53.118 64 56.2847 63.3 58.2847 64.5C60.7847 66 67.2847 74 78.2847 77C89.2847 80 129.285 75 128.785 66.5C128.385 59.7 129.277 62.6667 129.773 65M51.7847 64.5L61.2847 10.5" stroke="black"/>
<path d="M87.7847 156V101.5" stroke="black"/>
<path d="M92.7847 156.5V102" stroke="black"/>
</svg>
