<svg width="167" height="206" viewBox="0 0 167 206" fill="none" xmlns="http://www.w3.org/2000/svg">
<rect width="167" height="206" rx="36" fill="white"/>
<path d="M18.818 37L17.108 30.565H17.729L18.845 34.903C18.971 35.38 19.142 36.172 19.142 36.172H19.16C19.16 36.172 19.34 35.398 19.466 34.939L20.645 30.565H21.293L22.472 34.93C22.589 35.389 22.769 36.172 22.769 36.172H22.787C22.787 36.172 22.967 35.38 23.084 34.903L24.209 30.565H24.812L23.066 37H22.454L21.23 32.311C21.113 31.906 20.978 31.267 20.978 31.267H20.96C20.96 31.267 20.825 31.897 20.717 32.311L19.457 37H18.818ZM25.4139 37V30.565H25.9719V33.058H25.9899C26.3049 32.59 26.8089 32.248 27.5469 32.248C28.4109 32.248 29.0319 32.761 29.0319 33.697V37H28.4739V33.751C28.4739 33.049 28.0689 32.725 27.4119 32.725C26.6199 32.725 25.9719 33.283 25.9719 34.048V37H25.4139ZM29.9489 37V32.347H30.5069V37H29.9489ZM29.9489 31.357V30.565H30.5069V31.357H29.9489ZM32.7294 37.036C32.1984 37.036 31.8384 36.793 31.8384 36.199V32.806H31.1364V32.347H31.8384V30.916H32.3964V32.347H33.2604V32.806H32.3964V36.109C32.3964 36.442 32.5494 36.55 32.8464 36.55C32.9724 36.55 33.1344 36.514 33.2154 36.478H33.2424V36.955C33.0894 37.009 32.9274 37.036 32.7294 37.036ZM35.8295 37.117C34.4345 37.117 33.6605 36.073 33.6605 34.678C33.6605 33.283 34.4975 32.239 35.7845 32.239C37.2785 32.239 37.7915 33.472 37.7825 34.777H34.2365C34.2635 35.821 34.7675 36.64 35.8295 36.64C36.6035 36.64 37.0085 36.226 37.1885 35.596H37.7285C37.5305 36.514 36.8735 37.117 35.8295 37.117ZM34.2455 34.336H37.1975C37.1705 33.418 36.7385 32.698 35.7845 32.698C34.8395 32.698 34.3445 33.409 34.2455 34.336Z" fill="black"/>
<path d="M140.987 176C140.987 177.45 140.155 178.901 138.495 180.287C136.837 181.671 134.408 182.939 131.362 184.014C125.276 186.162 116.834 187.5 107.487 187.5C98.1392 187.5 89.6981 186.162 83.6116 184.014C80.5661 182.939 78.137 181.671 76.479 180.287C74.8182 178.901 73.9868 177.45 73.9868 176C73.9868 174.55 74.8182 173.099 76.479 171.713C78.137 170.329 80.5661 169.061 83.6116 167.986C89.6981 165.838 98.1392 164.5 107.487 164.5C116.834 164.5 125.276 165.838 131.362 167.986C134.408 169.061 136.837 170.329 138.495 171.713C140.155 173.099 140.987 174.55 140.987 176Z" stroke="black"/>
<path d="M135.987 27C135.987 28.1691 135.301 29.3564 133.892 30.5049C132.487 31.6503 130.424 32.704 127.83 33.5984C122.647 35.3856 115.455 36.5 107.487 36.5C99.5189 36.5 92.3266 35.3856 87.1437 33.5984C84.5499 32.704 82.4866 31.6503 81.0817 30.5049C79.673 29.3564 78.9868 28.1691 78.9868 27C78.9868 25.8309 79.673 24.6436 81.0817 23.4951C82.4866 22.3497 84.5499 21.296 87.1437 20.4016C92.3266 18.6144 99.5189 17.5 107.487 17.5C115.455 17.5 122.647 18.6144 127.83 20.4016C130.424 21.296 132.487 22.3497 133.892 23.4951C135.301 24.6436 135.987 25.8309 135.987 27Z" stroke="black"/>
<path d="M68.9881 100C68.4884 98.5 67.4872 92.5 67.9868 91L69.4868 81.5C70.8201 81 73.9868 80.3 75.9868 81.5C78.4868 83 84.9868 91 95.9868 94C106.987 97 146.987 92 146.487 83.5C146.087 76.7 146.979 79.6667 147.475 82C148.494 88.0457 149.096 92.8914 148.987 95.5C148.487 107.5 124.987 117.5 105.487 119C85.9874 120.5 69.6202 101.897 68.9881 100Z" fill="#F9FF9E"/>
<path d="M135.988 27.5C139.022 40.9731 144.744 65.7964 147.475 82M69.4868 81.5L67.9868 91C67.4872 92.5 68.4884 98.5 68.9881 100C69.6202 101.897 85.9874 120.5 105.487 119C124.987 117.5 148.487 107.5 148.987 95.5C149.096 92.8914 148.494 88.0457 147.475 82M69.4868 81.5C70.8201 81 73.9868 80.3 75.9868 81.5C78.4868 83 84.9868 91 95.9868 94C106.987 97 146.987 92 146.487 83.5C146.087 76.7 146.979 79.6667 147.475 82M69.4868 81.5L78.9868 27.5" stroke="black"/>
<path d="M105.487 173V118.5" stroke="black"/>
<path d="M110.487 173.5V119" stroke="black"/>
</svg>
